<mxfile host="app.diagrams.net" modified="2024-03-12T20:13:47.398Z" agent="Mozilla/5.0 (Windows NT 10.0; Win64; x64) AppleWebKit/537.36 (KHTML, like Gecko) Chrome/122.0.0.0 Safari/537.36" etag="VHgg08-kcQTtOYc2-RuO" version="24.0.5" type="device">
  <diagram name="Страница — 1" id="otGqDrfL63iMfPq_JGB5">
    <mxGraphModel dx="1050" dy="541" grid="1" gridSize="10" guides="1" tooltips="1" connect="1" arrows="1" fold="1" page="1" pageScale="1" pageWidth="827" pageHeight="1169" math="0" shadow="0">
      <root>
        <mxCell id="0" />
        <mxCell id="1" parent="0" />
        <mxCell id="VZghngZkQBJUcuiyrzO2-8" style="edgeStyle=orthogonalEdgeStyle;rounded=0;orthogonalLoop=1;jettySize=auto;html=1;entryX=0.5;entryY=0;entryDx=0;entryDy=0;endArrow=none;endFill=0;" edge="1" parent="1" source="VZghngZkQBJUcuiyrzO2-2" target="VZghngZkQBJUcuiyrzO2-4">
          <mxGeometry relative="1" as="geometry" />
        </mxCell>
        <mxCell id="VZghngZkQBJUcuiyrzO2-9" style="edgeStyle=orthogonalEdgeStyle;rounded=0;orthogonalLoop=1;jettySize=auto;html=1;entryX=0.5;entryY=0;entryDx=0;entryDy=0;endArrow=none;endFill=0;" edge="1" parent="1" source="VZghngZkQBJUcuiyrzO2-2" target="VZghngZkQBJUcuiyrzO2-3">
          <mxGeometry relative="1" as="geometry" />
        </mxCell>
        <mxCell id="VZghngZkQBJUcuiyrzO2-2" value="&lt;span style=&quot;font-size: 14px;&quot;&gt;:ProductCategory&lt;/span&gt;" style="rounded=0;whiteSpace=wrap;html=1;fontStyle=4;fontSize=14;fontFamily=Times New Roman;" vertex="1" parent="1">
          <mxGeometry x="80" y="80" width="120" height="60" as="geometry" />
        </mxCell>
        <mxCell id="VZghngZkQBJUcuiyrzO2-11" style="edgeStyle=orthogonalEdgeStyle;rounded=0;orthogonalLoop=1;jettySize=auto;html=1;entryX=0;entryY=0.5;entryDx=0;entryDy=0;endArrow=none;endFill=0;" edge="1" parent="1" source="VZghngZkQBJUcuiyrzO2-3" target="VZghngZkQBJUcuiyrzO2-5">
          <mxGeometry relative="1" as="geometry" />
        </mxCell>
        <mxCell id="VZghngZkQBJUcuiyrzO2-3" value=":Admin" style="rounded=0;whiteSpace=wrap;html=1;fontStyle=4;fontSize=14;fontFamily=Times New Roman;" vertex="1" parent="1">
          <mxGeometry x="80" y="280" width="120" height="60" as="geometry" />
        </mxCell>
        <mxCell id="VZghngZkQBJUcuiyrzO2-10" style="edgeStyle=orthogonalEdgeStyle;rounded=0;orthogonalLoop=1;jettySize=auto;html=1;entryX=0.75;entryY=0;entryDx=0;entryDy=0;endArrow=none;endFill=0;" edge="1" parent="1" source="VZghngZkQBJUcuiyrzO2-4" target="VZghngZkQBJUcuiyrzO2-3">
          <mxGeometry relative="1" as="geometry" />
        </mxCell>
        <mxCell id="VZghngZkQBJUcuiyrzO2-4" value="&lt;span style=&quot;font-size: 14px;&quot;&gt;:Product&lt;/span&gt;" style="rounded=0;whiteSpace=wrap;html=1;fontStyle=4;fontSize=14;fontFamily=Times New Roman;" vertex="1" parent="1">
          <mxGeometry x="270" y="150" width="120" height="60" as="geometry" />
        </mxCell>
        <mxCell id="VZghngZkQBJUcuiyrzO2-12" style="edgeStyle=orthogonalEdgeStyle;rounded=0;orthogonalLoop=1;jettySize=auto;html=1;entryX=0;entryY=0.5;entryDx=0;entryDy=0;endArrow=none;endFill=0;" edge="1" parent="1" source="VZghngZkQBJUcuiyrzO2-5" target="VZghngZkQBJUcuiyrzO2-6">
          <mxGeometry relative="1" as="geometry" />
        </mxCell>
        <mxCell id="VZghngZkQBJUcuiyrzO2-5" value=":User" style="rounded=0;whiteSpace=wrap;html=1;fontStyle=4;fontSize=14;fontFamily=Times New Roman;" vertex="1" parent="1">
          <mxGeometry x="320" y="280" width="120" height="60" as="geometry" />
        </mxCell>
        <mxCell id="VZghngZkQBJUcuiyrzO2-6" value="&lt;span style=&quot;font-size: 14px;&quot;&gt;:Basket&lt;/span&gt;" style="rounded=0;whiteSpace=wrap;html=1;fontStyle=4;fontSize=14;fontFamily=Times New Roman;" vertex="1" parent="1">
          <mxGeometry x="520" y="280" width="120" height="60" as="geometry" />
        </mxCell>
      </root>
    </mxGraphModel>
  </diagram>
</mxfile>
